<mxfile host="app.diagrams.net" modified="2023-11-25T00:58:03.587Z" agent="Mozilla/5.0 (Windows NT 10.0; Win64; x64) AppleWebKit/537.36 (KHTML, like Gecko) Chrome/119.0.0.0 Safari/537.36 Edg/119.0.0.0" etag="u7WcNqygtw3kyrMNt_GN" version="22.1.3" type="device">
  <diagram name="Page-1" id="929967ad-93f9-6ef4-fab6-5d389245f69c">
    <mxGraphModel dx="3139.5" dy="751" grid="1" gridSize="10" guides="1" tooltips="1" connect="1" arrows="1" fold="1" page="1" pageScale="1.5" pageWidth="1169" pageHeight="826" background="none" math="0" shadow="0">
      <root>
        <mxCell id="0" style=";html=1;" />
        <mxCell id="1" style=";html=1;" parent="0" />
        <mxCell id="1672d66443f91eb5-23" value="朗读功能的概念模型" style="text;strokeColor=none;fillColor=none;html=1;fontSize=24;fontStyle=1;verticalAlign=middle;align=center;" parent="1" vertex="1">
          <mxGeometry x="-10" y="300" width="1510" height="40" as="geometry" />
        </mxCell>
        <mxCell id="_hxEorGlJqe97CX57vRD-1" value="" style="rounded=0;whiteSpace=wrap;html=1;" parent="1" vertex="1">
          <mxGeometry x="420" y="430" width="120" height="40" as="geometry" />
        </mxCell>
        <mxCell id="_hxEorGlJqe97CX57vRD-3" style="edgeStyle=orthogonalEdgeStyle;rounded=0;orthogonalLoop=1;jettySize=auto;html=1;" parent="1" edge="1">
          <mxGeometry relative="1" as="geometry">
            <mxPoint x="680" y="429" as="targetPoint" />
            <mxPoint x="540" y="429" as="sourcePoint" />
          </mxGeometry>
        </mxCell>
        <mxCell id="_hxEorGlJqe97CX57vRD-2" value="&lt;font style=&quot;font-size: 17px;&quot;&gt;用户&lt;/font&gt;" style="rounded=0;whiteSpace=wrap;html=1;" parent="1" vertex="1">
          <mxGeometry x="420" y="390" width="120" height="40" as="geometry" />
        </mxCell>
        <mxCell id="_hxEorGlJqe97CX57vRD-6" style="edgeStyle=orthogonalEdgeStyle;rounded=0;orthogonalLoop=1;jettySize=auto;html=1;entryX=0;entryY=0.5;entryDx=0;entryDy=0;" parent="1" source="_hxEorGlJqe97CX57vRD-5" target="_hxEorGlJqe97CX57vRD-8" edge="1">
          <mxGeometry relative="1" as="geometry">
            <mxPoint x="910" y="430" as="targetPoint" />
          </mxGeometry>
        </mxCell>
        <mxCell id="_hxEorGlJqe97CX57vRD-5" value="&lt;font style=&quot;font-size: 17px;&quot;&gt;便签界面&lt;/font&gt;" style="rounded=0;whiteSpace=wrap;html=1;" parent="1" vertex="1">
          <mxGeometry x="680" y="390" width="120" height="80" as="geometry" />
        </mxCell>
        <mxCell id="_hxEorGlJqe97CX57vRD-14" style="edgeStyle=orthogonalEdgeStyle;rounded=0;orthogonalLoop=1;jettySize=auto;html=1;" parent="1" source="_hxEorGlJqe97CX57vRD-8" edge="1">
          <mxGeometry relative="1" as="geometry">
            <mxPoint x="995" y="580" as="targetPoint" />
          </mxGeometry>
        </mxCell>
        <mxCell id="_hxEorGlJqe97CX57vRD-8" value="&lt;span style=&quot;font-size: 17px;&quot;&gt;选中文本&lt;/span&gt;" style="rounded=0;whiteSpace=wrap;html=1;" parent="1" vertex="1">
          <mxGeometry x="930" y="390" width="130" height="80" as="geometry" />
        </mxCell>
        <mxCell id="_hxEorGlJqe97CX57vRD-22" style="edgeStyle=orthogonalEdgeStyle;rounded=0;orthogonalLoop=1;jettySize=auto;html=1;entryX=0.5;entryY=0;entryDx=0;entryDy=0;" parent="1" source="_hxEorGlJqe97CX57vRD-9" target="_hxEorGlJqe97CX57vRD-11" edge="1">
          <mxGeometry relative="1" as="geometry" />
        </mxCell>
        <mxCell id="_hxEorGlJqe97CX57vRD-9" value="&lt;font style=&quot;font-size: 17px;&quot;&gt;朗读操作&lt;/font&gt;" style="rounded=0;whiteSpace=wrap;html=1;" parent="1" vertex="1">
          <mxGeometry x="935" y="585" width="125" height="70" as="geometry" />
        </mxCell>
        <mxCell id="_hxEorGlJqe97CX57vRD-11" value="&lt;span style=&quot;font-size: 17px;&quot;&gt;输出&lt;/span&gt;" style="rounded=0;whiteSpace=wrap;html=1;" parent="1" vertex="1">
          <mxGeometry x="680" y="710" width="120" height="70" as="geometry" />
        </mxCell>
        <mxCell id="_hxEorGlJqe97CX57vRD-16" value="" style="endArrow=none;html=1;rounded=0;" parent="1" edge="1">
          <mxGeometry width="50" height="50" relative="1" as="geometry">
            <mxPoint x="480" y="630" as="sourcePoint" />
            <mxPoint x="479.5" y="470" as="targetPoint" />
          </mxGeometry>
        </mxCell>
        <mxCell id="_hxEorGlJqe97CX57vRD-17" value="" style="endArrow=classic;html=1;rounded=0;" parent="1" edge="1">
          <mxGeometry width="50" height="50" relative="1" as="geometry">
            <mxPoint x="480" y="630" as="sourcePoint" />
            <mxPoint x="930" y="630" as="targetPoint" />
          </mxGeometry>
        </mxCell>
        <mxCell id="_hxEorGlJqe97CX57vRD-21" style="edgeStyle=orthogonalEdgeStyle;rounded=0;orthogonalLoop=1;jettySize=auto;html=1;entryX=0.167;entryY=1;entryDx=0;entryDy=0;entryPerimeter=0;" parent="1" source="_hxEorGlJqe97CX57vRD-11" target="_hxEorGlJqe97CX57vRD-1" edge="1">
          <mxGeometry relative="1" as="geometry" />
        </mxCell>
      </root>
    </mxGraphModel>
  </diagram>
</mxfile>
